<svg width="24" height="24" viewBox="0 0 24 24" fill="none" xmlns="http://www.w3.org/2000/svg">
<path d="M16.4647 13.5519C16.4647 14.6861 17.3634 15.6172 18.5011 15.6486C19.6925 15.6805 20.6568 14.6554 20.6568 13.4772V13.3862C20.8466 12.9843 20.9567 12.5493 20.9567 12.1338C20.9567 10.9121 20.0387 10.153 18.5604 10.153C17.0821 10.153 16.1638 10.9121 16.1638 12.1338C16.1638 12.5507 16.2739 12.9877 16.4647 13.3909V13.5519ZM19.982 13.4773C19.982 14.2852 19.3205 14.9962 18.5196 14.9741C17.7464 14.9528 17.1396 14.3195 17.1396 13.5519V13.0649C17.1396 12.7924 17.361 12.5708 17.6335 12.5708H19.4877C19.7602 12.5708 19.982 12.7924 19.982 13.0649V13.4773ZM18.5604 10.8279C19.0781 10.8279 20.2819 10.9551 20.2819 12.1338C20.2819 12.1584 20.2788 12.1838 20.2777 12.2087C20.0692 12.0163 19.7931 11.8959 19.4878 11.8959H17.6336C17.3292 11.8959 17.054 12.0156 16.8459 12.2069C16.8449 12.1828 16.8388 12.1577 16.8388 12.1338C16.8387 10.9551 18.0428 10.8279 18.5604 10.8279Z" fill="#E6007E"/>
<path d="M18.4678 15.9287C17.0869 15.9287 15.8718 16.4791 15.1227 17.3143C14.1787 16.7254 13.0199 16.4035 11.7977 16.4035C10.5478 16.4035 9.39884 16.746 8.48266 17.3149C7.64941 16.3774 6.38699 15.9287 5.12741 15.9287C2.85157 15.9287 1 17.4086 1 19.2275V19.4163C1 19.5377 1.06523 19.6499 1.17084 19.7097C2.73534 20.5973 4.63331 20.8899 6.40311 20.6112C6.40238 20.6399 6.39765 20.6677 6.39765 20.6964V20.9488C6.39765 21.0703 6.46287 21.1825 6.56866 21.2423C9.71187 23.0252 13.9275 23.0003 17.0264 21.2423C17.1322 21.1825 17.1975 21.0703 17.1975 20.9488V20.6964C17.1975 20.6692 17.1931 20.6426 17.1925 20.6154C18.9703 20.8868 20.8601 20.5972 22.4243 19.7097C22.5301 19.6499 22.5953 19.5377 22.5953 19.4163V19.2275C22.5954 17.2455 20.5481 15.9287 18.4678 15.9287ZM1.67487 19.2165C1.68277 17.7747 3.22853 16.6035 5.12741 16.6035C6.16618 16.6035 7.22961 16.9568 7.93039 17.7067C7.20061 18.3032 6.68846 19.0666 6.49119 19.9178C4.85361 20.2112 3.1071 19.9732 1.67487 19.2165ZM16.5227 20.7499C13.6852 22.2771 9.91168 22.2778 7.07256 20.7499V20.6965C7.07256 18.7015 9.19221 17.0784 11.7977 17.0784C13.0769 17.0784 14.2744 17.4646 15.1697 18.1664C16.0422 18.846 16.5227 19.7446 16.5227 20.6966V20.7499ZM17.1054 19.9136C16.9146 19.0802 16.4194 18.3163 15.664 17.7023C16.291 17.0382 17.3129 16.6036 18.4678 16.6036C20.1346 16.6036 21.912 17.6154 21.9205 19.2165C20.5502 19.9404 18.8276 20.2243 17.1054 19.9136Z" fill="#E6007E"/>
<path d="M3.12422 13.5519C3.12422 14.6859 4.02292 15.6172 5.16064 15.6486C6.35444 15.6809 7.31617 14.6533 7.31617 13.4772V13.3803C7.50519 12.98 7.61618 12.5478 7.61618 12.1338C7.61618 10.9121 6.69798 10.153 5.21977 10.153C3.74173 10.153 2.82349 10.9121 2.82349 12.1338C2.82349 12.5506 2.93357 12.9874 3.12418 13.3904L3.12422 13.5519ZM6.64135 13.4773C6.64135 14.2788 5.98676 14.9962 5.17912 14.9741C4.40989 14.9529 3.79909 14.3236 3.79909 13.5519V13.0649C3.79909 12.7924 4.02068 12.5708 4.29319 12.5708H6.14738C6.41971 12.5708 6.64135 12.7924 6.64135 13.0649V13.4773ZM5.21977 10.8279C5.73746 10.8279 6.94135 10.9551 6.94135 12.1338C6.94135 12.1585 6.93843 12.1838 6.93731 12.2088C6.72887 12.0163 6.4528 11.8959 6.14738 11.8959H4.29319C3.98764 11.8959 3.71139 12.0163 3.50291 12.209C3.50188 12.184 3.4984 12.1585 3.4984 12.1338C3.4984 10.9551 4.70225 10.8279 5.21977 10.8279Z" fill="#E6007E"/>
<path d="M9.23521 13.1154C9.23521 14.566 10.3842 15.7628 11.8452 15.8027C13.3719 15.8454 14.6082 14.5251 14.6082 13.0157V12.8834C14.8628 12.3518 15.0089 11.7724 15.0089 11.2212C15.0089 9.65911 13.8256 8.68866 11.9211 8.68866C10.0166 8.68866 8.8335 9.65911 8.8335 11.2212C8.8335 11.7713 8.98084 12.3484 9.23517 12.8786L9.23521 13.1154ZM13.9333 13.0157C13.9333 14.1599 12.9961 15.1598 11.8636 15.1281C10.7687 15.0984 9.91008 14.2007 9.91008 13.1154V12.4648C9.91008 12.0384 10.2569 11.6916 10.6833 11.6916H13.16C13.5864 11.6916 13.9334 12.0384 13.9334 12.4648V13.0157H13.9333ZM11.9211 9.36353C12.6465 9.36353 14.334 9.5446 14.334 11.2212C14.334 11.3425 14.3236 11.466 14.3063 11.5902C14.0414 11.2441 13.6284 11.0167 13.1599 11.0167H10.6833C10.2156 11.0167 9.8033 11.2433 9.5384 11.5884C9.52074 11.4647 9.50836 11.3416 9.50836 11.2212C9.50836 9.5446 11.1957 9.36353 11.9211 9.36353Z" fill="#E6007E"/>
<path d="M9.42386 4.04709C10.5459 4.04709 11.4586 4.95987 11.4586 6.0817C11.4586 6.26805 11.613 6.41913 11.7994 6.41913C11.9857 6.41913 12.1368 6.26805 12.1368 6.0817C12.1368 4.95987 13.0496 4.04709 14.1716 4.04709C14.3581 4.04709 14.509 3.89601 14.509 3.70965C14.509 3.5233 14.3581 3.37222 14.1716 3.37222C13.0496 3.37222 12.1368 2.45943 12.1368 1.33743C12.1368 1.15108 11.9824 1 11.7961 1C11.6097 1 11.4586 1.15108 11.4586 1.33743C11.4586 2.46145 10.5476 3.37222 9.42386 3.37222C9.2375 3.37222 9.08643 3.5233 9.08643 3.70965C9.08643 3.89601 9.2375 4.04709 9.42386 4.04709ZM11.7985 2.64446C12.0458 3.09163 12.4159 3.46198 12.863 3.70961C12.4156 3.95745 12.045 4.32832 11.7977 4.77614C11.5507 4.32883 11.1807 3.95827 10.7338 3.71047C11.1842 3.46065 11.5554 3.0845 11.7985 2.64446Z" fill="#E6007E"/>
<path d="M3.67337 7.33879C4.2886 7.33879 4.78914 7.83934 4.78914 8.45469C4.78914 8.64105 4.94237 8.79213 5.12872 8.79213C5.31508 8.79213 5.46616 8.64105 5.46616 8.45469C5.46616 7.83929 5.9667 7.33879 6.58193 7.33879C6.76828 7.33879 6.91936 7.18772 6.91936 7.00136C6.91936 6.81501 6.76828 6.66393 6.58193 6.66393C5.9667 6.66393 5.46616 6.16338 5.46616 5.54816C5.46616 5.3618 5.31293 5.21072 5.12657 5.21072C4.94022 5.21072 4.78914 5.3618 4.78914 5.54816C4.78914 6.16338 4.29045 6.66393 3.67337 6.66393C3.48702 6.66393 3.33594 6.81501 3.33594 7.00136C3.33594 7.18772 3.48702 7.33879 3.67337 7.33879ZM5.12821 6.5926C5.24139 6.74978 5.37962 6.88801 5.5368 7.00136C5.37927 7.11488 5.24104 7.25346 5.12752 7.41094C5.01434 7.25359 4.87628 7.11536 4.7191 7.00183C4.87207 6.89145 5.01271 6.75236 5.12821 6.5926Z" fill="#E6007E"/>
<path d="M17.0137 7.33879C17.6289 7.33879 18.1295 7.83934 18.1295 8.45469C18.1295 8.64105 18.2824 8.79213 18.4689 8.79213C18.6554 8.79213 18.8063 8.64105 18.8063 8.45469C18.8063 7.83929 19.3069 7.33879 19.9224 7.33879C20.1089 7.33879 20.2598 7.18772 20.2598 7.00136C20.2598 6.81501 20.1089 6.66393 19.9224 6.66393C19.3069 6.66393 18.8063 6.16338 18.8063 5.54816C18.8063 5.3618 18.6534 5.21072 18.4669 5.21072C18.2804 5.21072 18.1295 5.3618 18.1295 5.54816C18.1295 6.1642 17.6301 6.66393 17.0137 6.66393C16.8272 6.66393 16.6763 6.81501 16.6763 7.00136C16.6763 7.18772 16.8272 7.33879 17.0137 7.33879ZM18.4685 6.5926C18.5819 6.74978 18.7199 6.88801 18.8771 7.00136C18.7196 7.11488 18.5812 7.25329 18.4679 7.41094C18.3545 7.25359 18.2167 7.11536 18.0596 7.00183C18.2146 6.88981 18.3542 6.75111 18.4685 6.5926Z" fill="#E6007E"/>
</svg>
