<svg width="16" height="16" viewBox="0 0 16 16" fill="none" xmlns="http://www.w3.org/2000/svg">
<path d="M11.7431 4.13606H11.7511M4.77981 14.4401H11.2198C12.9982 14.4401 14.4398 12.9984 14.4398 11.2201V4.78006C14.4398 3.0017 12.9982 1.56006 11.2198 1.56006H4.77981C3.00146 1.56006 1.55981 3.0017 1.55981 4.78006V11.2201C1.55981 12.9984 3.00146 14.4401 4.77981 14.4401ZM11.0186 8.00006C11.0186 9.66727 9.66702 11.0188 7.99981 11.0188C6.3326 11.0188 4.98106 9.66727 4.98106 8.00006C4.98106 6.33285 6.3326 4.98131 7.99981 4.98131C9.66702 4.98131 11.0186 6.33285 11.0186 8.00006Z" stroke="#E6007E" stroke-width="2" stroke-linecap="round" stroke-linejoin="round"/>
</svg>
