<svg width="81" height="26" viewBox="0 0 81 26" fill="none" xmlns="http://www.w3.org/2000/svg">
<path d="M80.7512 17.9423L69.6915 19.9765C69.3794 20.0103 69.187 19.9102 69.2234 19.7072L70.9848 15.6361C71.0402 15.302 70.734 15.1963 70.5576 15.2231C69.4334 15.3838 58.4728 17.1416 58.3562 17.1515C58.1783 17.167 58.1477 16.9555 58.2395 16.8724C59.422 15.8067 62.5963 13.3693 63.5266 12.4869C64.1667 11.8779 64.6552 11.1477 65.0503 10.3385C65.4557 9.54066 65.6452 8.61874 65.6452 7.57699C65.6452 6.53524 65.4294 5.46389 64.9847 4.5321C64.5414 3.59748 63.894 2.78833 63.0425 2.12579C62.2041 1.44914 61.163 0.934613 59.9309 0.565279C58.7003 0.184667 57.302 0 55.7418 0C54.3566 0 53.0632 0.146606 51.8428 0.42995C50.637 0.713294 49.4938 1.00651 48.5271 1.49848C44.72 3.44524 47.0019 7.09629 47.8841 8.27619C48.0284 8.46931 48.3215 8.48764 48.4819 8.3072C48.7691 7.98439 49.0753 7.67849 49.4049 7.37964C49.8481 6.97365 50.3453 6.61841 50.8776 6.28714C51.4098 5.96714 51.9945 5.6979 52.6054 5.51323C53.2266 5.31728 53.9002 5.2172 54.638 5.2172C56.0217 5.2172 56.7202 5.53719 57.4551 6.17578C58.1929 6.81436 58.6055 7.57558 58.5603 8.47072C58.448 10.6952 46.6811 18.0847 46.0862 18.4329C45.8208 18.5879 45.1968 18.6331 44.9897 18.1763L44.5392 17.026L39.8907 5.84168C38.8628 3.39872 36.5269 1.80297 33.9242 1.80297H33.6573C31.4993 1.80297 29.544 3.12947 28.7056 5.16645L25.3301 13.3242H25.3126L24.3794 15.5431C24.3167 15.6953 24.1738 15.7728 24.0295 15.7742C23.8851 15.7714 23.7422 15.6953 23.6781 15.5431L22.7449 13.3242H22.7376L19.3708 5.16645C18.5339 3.12947 16.5756 1.80297 14.4177 1.80297H14.0896C11.4869 1.80297 9.13786 3.39872 8.12156 5.85437L0.0276235 25.4869C-0.0729857 25.7336 0.113652 26 0.386317 26H3.50958C6.0875 26 8.43651 24.4169 9.45281 21.974L13.537 12.2599C13.6682 11.9484 14.1246 11.9484 14.2543 12.2599L14.8288 13.6287L18.5455 22.6365C19.384 24.6735 21.3407 26 23.4987 26H24.5559C26.3216 26 27.9518 25.1119 28.9447 23.6755C28.9491 23.6726 28.955 23.6712 28.9593 23.6684C28.9593 23.6684 29.3647 22.9889 29.5105 22.6365L33.0858 13.9727L33.8177 12.2515C33.949 11.9413 34.4039 11.9427 34.5337 12.2529L38.6207 21.974C39.169 23.2991 40.1065 24.3676 41.2628 25.0668L41.2832 25.0795C42.3272 25.7167 43.5987 25.9041 44.8104 25.673L63.827 22.0529C64.4219 21.9317 64.2761 22.3616 64.2688 22.5026L63.4362 25.6955C63.4275 25.859 63.6243 26.0141 63.7774 25.9662L80.8605 18.3469C81.1011 18.2567 81.0078 17.9085 80.7526 17.9409" fill="#E6007E"/>
</svg>
