<svg width="22" height="22" viewBox="0 0 22 22" fill="none" xmlns="http://www.w3.org/2000/svg">
<g clip-path="url(#clip0_629_50)">
<path d="M2.27335 11.6109H0.726258C0.325875 11.6109 0 11.9365 0 12.3368V20.8691C0 21.2694 0.325875 21.5953 0.726258 21.5953H2.27335C2.67373 21.5953 2.99926 21.2694 2.99926 20.8691V12.3368C2.99926 11.9365 2.67369 11.6109 2.27335 11.6109ZM2.32439 20.8691C2.32439 20.8974 2.30132 20.9205 2.2733 20.9205H0.726258C0.697898 20.9205 0.674867 20.8974 0.674867 20.8691V12.3368C0.674867 12.3088 0.697941 12.2858 0.726258 12.2858H2.27335C2.30136 12.2858 2.32444 12.3088 2.32444 12.3368L2.32439 20.8691Z" fill="#E6007E"/>
<path d="M6.92227 14.1868H5.37518C4.9748 14.1868 4.64893 14.5126 4.64893 14.913V20.8691C4.64893 21.2695 4.9748 21.5954 5.37518 21.5954H6.92227C7.32266 21.5954 7.64853 21.2695 7.64853 20.8691V14.913C7.64853 14.5126 7.32266 14.1868 6.92227 14.1868ZM6.97371 20.8691C6.97371 20.8974 6.95063 20.9204 6.92232 20.9204H5.37523C5.34687 20.9204 5.32384 20.8974 5.32384 20.8691V14.913C5.32384 14.8847 5.34691 14.8616 5.37523 14.8616H6.92232C6.95068 14.8616 6.97371 14.8847 6.97371 14.913V20.8691Z" fill="#E6007E"/>
<path d="M11.5711 11.6109H10.0244C9.62397 11.6109 9.2981 11.9365 9.2981 12.3368V20.8691C9.2981 21.2694 9.62397 21.5953 10.0244 21.5953H11.5711C11.9715 21.5953 12.2974 21.2694 12.2974 20.8691V12.3368C12.2974 11.9365 11.9714 11.6109 11.5711 11.6109ZM11.6225 20.8691C11.6225 20.8974 11.5994 20.9205 11.5711 20.9205H10.0244C9.99599 20.9205 9.97296 20.8974 9.97296 20.8691V12.3368C9.97296 12.3088 9.99604 12.2858 10.0244 12.2858H11.5711C11.5995 12.2858 11.6225 12.3088 11.6225 12.3368V20.8691Z" fill="#E6007E"/>
<path d="M16.2201 13.0476H14.673C14.2727 13.0476 13.9468 13.3732 13.9468 13.7736V20.8691C13.9468 21.2695 14.2727 21.5953 14.673 21.5953H16.2201C16.6205 21.5953 16.9464 21.2695 16.9464 20.8691V13.7736C16.9464 13.3732 16.6205 13.0476 16.2201 13.0476ZM16.2715 20.8691C16.2715 20.8974 16.2484 20.9205 16.2201 20.9205H14.673C14.6447 20.9205 14.6216 20.8974 14.6216 20.8691V13.7736C14.6216 13.7455 14.6447 13.7225 14.673 13.7225H16.2201C16.2485 13.7225 16.2715 13.7455 16.2715 13.7736V20.8691Z" fill="#E6007E"/>
<path d="M20.869 9.12436H19.3219C18.9215 9.12436 18.5959 9.44993 18.5959 9.85027V20.8691C18.5959 21.2694 18.9215 21.5953 19.3219 21.5953H20.869C21.2693 21.5953 21.5952 21.2694 21.5952 20.8691V9.85027C21.5952 9.44993 21.2693 9.12436 20.869 9.12436ZM20.9204 20.8691C20.9204 20.8974 20.8973 20.9204 20.869 20.9204H19.3219C19.2939 20.9204 19.2708 20.8974 19.2708 20.8691V9.85027C19.2708 9.82226 19.2939 9.79918 19.3219 9.79918H20.869C20.8974 9.79918 20.9204 9.82226 20.9204 9.85027V20.8691Z" fill="#E6007E"/>
<path d="M5.949 12.5935C6.06665 12.6805 6.22937 12.6815 6.34839 12.5935L10.8394 9.29574L15.3093 11.2827C15.4474 11.3434 15.6098 11.3058 15.7067 11.1892L19.7587 6.28337L19.7585 7.3025C19.7585 7.48869 19.9094 7.63994 20.0959 7.63994C20.2821 7.63994 20.4333 7.48903 20.4333 7.3025L20.4337 5.34614C20.4337 5.16584 20.2655 4.98773 20.058 5.01111C20.0578 5.01111 20.0576 5.01102 20.0574 5.01102L18.1112 5.23708C17.926 5.25848 17.7935 5.42589 17.815 5.61108C17.8364 5.79628 18.0035 5.93201 18.189 5.90731L19.3004 5.77831L15.3495 10.5621L10.9346 8.59943C10.8242 8.55066 10.6957 8.56385 10.5978 8.63599L6.14867 11.9032L1.69922 8.63604C1.54831 8.52565 1.33742 8.55826 1.22768 8.70818C1.11729 8.85844 1.14956 9.06968 1.29982 9.17972L5.949 12.5935Z" fill="#E6007E"/>
<path d="M6.58136 8.12659C8.82407 8.12659 10.6486 6.30369 10.6486 4.0633C10.6486 1.82291 8.82407 0 6.58136 0C4.34097 0 2.51807 1.82291 2.51807 4.0633C2.51807 6.30369 4.34093 8.12659 6.58136 8.12659ZM6.58136 0.674824C8.45205 0.674824 9.97375 2.19489 9.97375 4.06325C9.97375 5.93162 8.45201 7.45168 6.58136 7.45168C4.713 7.45168 3.19293 5.93162 3.19293 4.06325C3.19293 2.19489 4.713 0.674824 6.58136 0.674824Z" fill="#E6007E"/>
<path d="M6.64605 5.19815H5.7847C5.59817 5.19815 5.44727 5.34905 5.44727 5.53558C5.44727 5.72211 5.59817 5.87301 5.7847 5.87301H6.247V6.0506C6.247 6.23713 6.39791 6.38804 6.58443 6.38804C6.77096 6.38804 6.92187 6.23713 6.92187 6.0506V5.83254C7.37957 5.70986 7.71932 5.2953 7.71932 4.7994C7.71932 4.20759 7.2379 3.72582 6.64609 3.72582C6.60901 3.72582 6.48689 3.72582 6.52088 3.72582C6.3011 3.72582 6.12218 3.5469 6.12218 3.32712C6.12218 3.10733 6.3011 2.92871 6.52088 2.92871H7.38193C7.56846 2.92871 7.71937 2.7778 7.71937 2.59128C7.71937 2.40475 7.56846 2.25384 7.38193 2.25384H6.92187V2.07629C6.92187 1.88977 6.77096 1.73886 6.58443 1.73886C6.39791 1.73886 6.247 1.88977 6.247 2.07629V2.29372C5.78818 2.41566 5.44727 2.83087 5.44727 3.32746C5.44727 3.91927 5.92903 4.40069 6.52084 4.40069H6.64605C6.86584 4.40069 7.04446 4.57961 7.04446 4.7994C7.04446 5.01918 6.86584 5.19815 6.64605 5.19815Z" fill="#E6007E"/>
</g>
<defs>
<clipPath id="clip0_629_50">
<rect width="22" height="22" fill="white"/>
</clipPath>
</defs>
</svg>
