<svg width="24" height="24" viewBox="0 0 24 24" fill="none" xmlns="http://www.w3.org/2000/svg">
<g clip-path="url(#clip0_629_83)">
<path d="M21.6256 1H2.37411C1.61593 1 0.999023 1.61669 0.999023 2.37509V11.6151C0.999023 12.3735 1.61588 12.9902 2.37411 12.9902H21.6256C22.3838 12.9902 23.0007 12.3735 23.0007 11.6151V2.37509C23.0007 1.61669 22.3838 1 21.6256 1ZM22.3131 11.6151C22.3131 11.9941 22.0047 12.3026 21.6256 12.3026H2.37411C1.99491 12.3026 1.68657 11.9941 1.68657 11.6151V2.37509C1.68657 1.99606 1.99491 1.6875 2.37411 1.6875H21.6256C22.0048 1.6875 22.3132 1.99606 22.3132 2.37504V11.615H22.3131V11.6151Z" fill="#E6007E"/>
<path d="M5.81218 16.627V15.729C5.81218 14.8803 5.12163 14.1897 4.27291 14.1897C3.42419 14.1897 2.73364 14.8803 2.73364 15.729V16.627C2.73364 17.4758 3.42419 18.1663 4.27291 18.1663C5.12163 18.1663 5.81218 17.4758 5.81218 16.627ZM3.42119 16.627V15.729C3.42119 15.2593 3.80322 14.8773 4.27291 14.8773C4.7426 14.8773 5.12464 15.2593 5.12464 15.729V16.627C5.12464 17.0967 4.7426 17.4788 4.27291 17.4788C3.80322 17.4788 3.42119 17.0967 3.42119 16.627Z" fill="#E6007E"/>
<path d="M4.27134 18.688C2.46721 18.688 0.999268 20.1574 0.999268 21.9636C0.999268 22.0965 1.07579 22.2174 1.19585 22.2742C3.20558 23.2265 5.2756 23.2572 7.35022 22.2742C7.47023 22.2174 7.5468 22.0966 7.5468 21.9636C7.54676 20.1575 6.07749 18.688 4.27134 18.688ZM1.69571 21.7468C1.80618 20.421 2.91907 19.3756 4.27134 19.3756C5.62528 19.3756 6.73972 20.421 6.85019 21.7468C5.11817 22.5089 3.42769 22.5089 1.69571 21.7468Z" fill="#E6007E"/>
<path d="M13.5392 16.627V15.729C13.5392 14.8803 12.8487 14.1897 12 14.1897C11.1512 14.1897 10.4607 14.8803 10.4607 15.729V16.627C10.4607 17.4758 11.1512 18.1663 12 18.1663C12.8487 18.1663 13.5392 17.4758 13.5392 16.627ZM11.1482 16.627V15.729C11.1482 15.2593 11.5303 14.8773 12 14.8773C12.4697 14.8773 12.8517 15.2593 12.8517 15.729V16.627C12.8517 17.0967 12.4697 17.4788 12 17.4788C11.5303 17.4788 11.1482 17.0967 11.1482 16.627Z" fill="#E6007E"/>
<path d="M11.9981 18.688C10.194 18.688 8.72607 20.1574 8.72607 21.9636C8.72607 22.0965 8.8026 22.2174 8.92266 22.2742C10.9324 23.2265 13.0024 23.2572 15.077 22.2742C15.197 22.2174 15.2736 22.0966 15.2736 21.9636C15.2737 20.1575 13.8044 18.688 11.9981 18.688ZM9.42255 21.7468C9.53303 20.421 10.6459 19.3756 11.9982 19.3756C13.3521 19.3756 14.4666 20.421 14.577 21.7468C12.845 22.5089 11.1545 22.5089 9.42255 21.7468Z" fill="#E6007E"/>
<path d="M21.2663 16.627V15.729C21.2663 14.8803 20.5757 14.1897 19.727 14.1897C18.8783 14.1897 18.1877 14.8803 18.1877 15.729V16.627C18.1877 17.4758 18.8783 18.1663 19.727 18.1663C20.5757 18.1663 21.2663 17.4758 21.2663 16.627ZM18.8753 16.627V15.729C18.8753 15.2593 19.2573 14.8773 19.727 14.8773C20.1967 14.8773 20.5787 15.2593 20.5787 15.729V16.627C20.5787 17.0967 20.1967 17.4788 19.727 17.4788C19.2573 17.4788 18.8753 17.0967 18.8753 16.627Z" fill="#E6007E"/>
<path d="M19.7254 18.688C17.9213 18.688 16.4534 20.1574 16.4534 21.9636C16.4534 22.0965 16.5299 22.2174 16.65 22.2742C18.6597 23.2265 20.7297 23.2572 22.8043 22.2742C22.9243 22.2174 23.0009 22.0966 23.0009 21.9636C23.0009 20.1575 21.5316 18.688 19.7254 18.688ZM17.1499 21.7468C17.2603 20.421 18.3732 19.3756 19.7255 19.3756C21.0794 19.3756 22.1939 20.421 22.3043 21.7468C20.5723 22.5089 18.8817 22.5089 17.1499 21.7468Z" fill="#E6007E"/>
<path d="M9.99487 5.78333C9.80499 5.78333 9.65112 5.93707 9.65112 6.12708V10.2158C9.65112 10.4058 9.80508 10.5596 9.99487 10.5596C10.1847 10.5596 10.3386 10.4058 10.3386 10.2158V6.12708C10.3387 5.93707 10.1848 5.78333 9.99487 5.78333Z" fill="#E6007E"/>
<path d="M8.03589 6.96909C7.84601 6.96909 7.69214 7.12283 7.69214 7.31284V10.2158C7.69214 10.4058 7.8461 10.5595 8.03589 10.5595C8.22577 10.5595 8.37964 10.4058 8.37964 10.2158V7.31284C8.37964 7.12283 8.22572 6.96909 8.03589 6.96909Z" fill="#E6007E"/>
<path d="M6.07666 6.03714C5.88678 6.03714 5.73291 6.19088 5.73291 6.38089V10.2158C5.73291 10.4058 5.88687 10.5596 6.07666 10.5596C6.26645 10.5596 6.42041 10.4058 6.42041 10.2158V6.38089C6.42045 6.19088 6.26654 6.03714 6.07666 6.03714Z" fill="#E6007E"/>
<path d="M4.11768 7.34177C3.9278 7.34177 3.77393 7.49551 3.77393 7.68552V10.2158C3.77393 10.4058 3.92788 10.5596 4.11768 10.5596C4.30751 10.5596 4.46143 10.4058 4.46143 10.2158V7.68552C4.46147 7.49551 4.30755 7.34177 4.11768 7.34177Z" fill="#E6007E"/>
<path d="M4.36074 5.95351L6.05345 4.2608L7.76949 5.97667C7.90377 6.11095 8.12132 6.11095 8.2556 5.97667L10.1141 4.11815C10.2484 3.98387 10.2484 3.76632 10.1141 3.63204C9.97985 3.49776 9.7623 3.49776 9.62802 3.63204L8.01252 5.24754L6.29648 3.53171C6.1622 3.39743 5.94465 3.39743 5.81038 3.53171L3.87463 5.46745C3.74036 5.60173 3.74036 5.81928 3.87463 5.95356C4.00891 6.08779 4.22646 6.08779 4.36074 5.95351Z" fill="#E6007E"/>
<path d="M19.8824 3.35306H13.5972C13.4073 3.35306 13.2534 3.5068 13.2534 3.69681C13.2534 3.88682 13.4074 4.04056 13.5972 4.04056H19.8823C20.0722 4.04056 20.2261 3.88682 20.2261 3.69681C20.2261 3.5068 20.0722 3.35306 19.8824 3.35306Z" fill="#E6007E"/>
<path d="M19.8824 5.55197H13.5972C13.4073 5.55197 13.2534 5.70571 13.2534 5.89572C13.2534 6.08573 13.4074 6.23947 13.5972 6.23947H19.8823C20.0722 6.23947 20.2261 6.08573 20.2261 5.89572C20.2261 5.70571 20.0722 5.55197 19.8824 5.55197Z" fill="#E6007E"/>
<path d="M19.8824 7.75101H13.5972C13.4073 7.75101 13.2534 7.90475 13.2534 8.09476C13.2534 8.28476 13.4074 8.43851 13.5972 8.43851H19.8823C20.0722 8.43851 20.2261 8.28476 20.2261 8.09476C20.2261 7.90475 20.0722 7.75101 19.8824 7.75101Z" fill="#E6007E"/>
<path d="M19.8824 9.94958H13.5972C13.4073 9.94958 13.2534 10.1033 13.2534 10.2933C13.2534 10.4833 13.4074 10.6371 13.5972 10.6371H19.8823C20.0722 10.6371 20.2261 10.4833 20.2261 10.2933C20.2261 10.1034 20.0722 9.94958 19.8824 9.94958Z" fill="#E6007E"/>
</g>
<defs>
<clipPath id="clip0_629_83">
<rect width="22" height="22" fill="white" transform="translate(1 1)"/>
</clipPath>
</defs>
</svg>
