<svg width="60" height="60" viewBox="0 0 60 60" fill="none" xmlns="http://www.w3.org/2000/svg">
<path d="M48.2106 32.3865C46.8004 31.223 44.7174 31.2772 43.367 32.507L38.9842 36.5003C38.3149 35.6433 37.3101 35.145 36.2134 35.145H31.4882C30.9042 35.145 30.339 35.0455 29.8091 34.8489C28.4619 34.3482 25.8003 33.6759 23.1155 34.7832C21.8333 35.3125 21.3325 36.0293 17.0217 39.5458C16.2736 39.1415 15.3213 39.2462 14.69 39.8776L12.5784 41.9891C11.8072 42.7603 11.8072 44.0097 12.5784 44.781L19.6285 51.831C20.3921 52.5959 21.6468 52.6039 22.4196 51.831L24.5317 49.7189C25.3008 48.9498 25.3008 47.6982 24.5317 46.9278L24.5276 46.9237L24.9735 46.4778C25.914 45.5359 27.1935 45.0419 28.4532 45.128C31.5865 45.3313 34.7551 45.0819 37.8762 44.3833C38.9815 44.1366 39.9911 43.581 40.7948 42.7759L48.3477 35.2231C49.1516 34.4204 49.08 33.1004 48.2106 32.3865ZM23.5505 48.7376L21.4383 50.849C21.21 51.0774 20.8379 51.078 20.6096 50.8497L13.5595 43.7997C13.3301 43.5689 13.3314 43.199 13.5595 42.9709L15.671 40.8588C15.8988 40.631 16.2709 40.6294 16.5004 40.8588C23.9579 48.3364 23.0782 47.4373 23.5498 47.9088C23.7788 48.1372 23.7788 48.5093 23.5505 48.7376ZM47.3663 34.2418L39.8134 41.7946C39.1955 42.4133 38.4209 42.8395 37.5739 43.0293C34.5808 43.6974 31.5431 43.9393 28.5438 43.7428C26.8755 43.6317 25.2153 44.2727 23.9922 45.4966L23.5461 45.9421C16.0795 38.4226 18.6547 41.0161 18.0975 40.455C22.3499 36.9709 22.6657 36.4715 23.6452 36.0661C25.8908 35.1384 28.169 35.7198 29.3263 36.1501C30.0114 36.4042 30.7385 36.5329 31.488 36.5329H36.2131C37.4044 36.5329 38.3371 37.501 38.3287 38.6593C38.3267 38.9772 38.0604 39.236 37.7358 39.236H27.1147C26.7312 39.236 26.4208 39.5463 26.4208 39.9299C26.4208 40.3134 26.7312 40.6237 27.1147 40.6237H37.7358C38.8207 40.6237 39.7091 39.7469 39.7166 38.6688C39.7186 38.374 39.684 38.0839 39.6149 37.8034L44.3021 33.533C45.145 32.7646 46.4454 32.73 47.3283 33.4578C47.5755 33.6606 47.5834 34.0247 47.3663 34.2418Z" fill="#E6007E"/>
<path d="M38.5563 26.817C41.3271 25.3472 43.0483 22.4856 43.0483 19.3489C43.0483 14.6916 39.2569 10.903 34.5969 10.903C29.9369 10.903 26.1455 14.6916 26.1455 19.3489C26.1455 22.4856 27.8666 25.3473 30.6375 26.817C31.2534 27.1435 31.6363 27.7481 31.6363 28.3958V28.3974C31.1224 28.5297 30.7397 28.993 30.7397 29.5478V31.9811C30.7397 32.9812 31.5535 33.795 32.5536 33.795H36.6397C37.6399 33.795 38.4537 32.9812 38.4537 31.9811V29.5478C38.4537 28.9933 38.0715 28.5302 37.558 28.3976V28.3958C37.5581 27.7481 37.9402 27.1429 38.5563 26.817ZM31.2879 25.5905C28.9718 24.3626 27.5332 21.9706 27.5332 19.3489C27.5332 15.4572 30.7017 12.2908 34.5967 12.2908C38.4918 12.2908 41.6603 15.4573 41.6603 19.3489C41.6603 21.9706 40.2217 24.3626 37.9055 25.5905C36.8473 26.1517 36.1881 27.2087 36.1729 28.3559H33.021C33.006 27.2086 32.3463 26.1517 31.2879 25.5905ZM37.066 31.9812C37.066 32.2163 36.8749 32.4075 36.6397 32.4075H32.5536C32.3184 32.4075 32.1273 32.2164 32.1273 31.9812V29.7436H37.0658V31.9812H37.066Z" fill="#E6007E"/>
<path d="M34.5962 10.3392C34.9797 10.3392 35.2901 10.0289 35.2901 9.64533V8.69387C35.2901 8.31033 34.9797 8 34.5962 8C34.2127 8 33.9023 8.31033 33.9023 8.69387V9.64525C33.9023 10.0289 34.2127 10.3392 34.5962 10.3392Z" fill="#E6007E"/>
<path d="M29.0164 11.3265C29.2086 11.6594 29.6341 11.7714 29.9644 11.5805C30.2964 11.3888 30.4103 10.9647 30.2184 10.6326L29.7428 9.80858C29.5503 9.47527 29.1255 9.36338 28.7948 9.55454C28.4627 9.74631 28.3489 10.1704 28.5407 10.5025L29.0164 11.3265Z" fill="#E6007E"/>
<path d="M24.8023 14.7493L25.6263 15.2249C25.9547 15.4146 26.3805 15.3056 26.5743 14.9709C26.7661 14.6388 26.6522 14.2146 26.3203 14.0229L25.4963 13.5472C25.1649 13.3554 24.7401 13.47 24.5483 13.8013C24.3564 14.1333 24.4702 14.5574 24.8023 14.7493Z" fill="#E6007E"/>
<path d="M42.8726 25.1819L43.6966 25.6576C44.0249 25.8472 44.4506 25.7382 44.6446 25.4035C44.8363 25.0715 44.7224 24.6473 44.3905 24.4555L43.5665 23.9799C43.2351 23.7874 42.8103 23.902 42.6186 24.2339C42.4268 24.5659 42.5406 24.9901 42.8726 25.1819Z" fill="#E6007E"/>
<path d="M23.6873 20.2962H24.6387C25.0222 20.2962 25.3325 19.9859 25.3325 19.6023C25.3325 19.2188 25.0222 18.9084 24.6387 18.9084H23.6873C23.3037 18.9084 22.9934 19.2188 22.9934 19.6023C22.9934 19.9859 23.3037 20.2962 23.6873 20.2962Z" fill="#E6007E"/>
<path d="M43.8591 19.6023C43.8591 19.9858 44.1695 20.2961 44.553 20.2961H45.5044C45.8879 20.2961 46.1982 19.9858 46.1982 19.6023C46.1982 19.2187 45.8879 18.9084 45.5044 18.9084H44.553C44.1695 18.9085 43.8591 19.2188 43.8591 19.6023Z" fill="#E6007E"/>
<path d="M25.6263 23.9798L24.8023 24.4555C24.4703 24.6472 24.3564 25.0713 24.5483 25.4034C24.742 25.7377 25.1675 25.8474 25.4963 25.6575L26.3202 25.1818C26.6523 24.9901 26.7661 24.5659 26.5743 24.2338C26.3818 23.9019 25.957 23.7873 25.6263 23.9798Z" fill="#E6007E"/>
<path d="M43.5666 15.225L44.3906 14.7493C44.7226 14.5576 44.8365 14.1334 44.6446 13.8013C44.4521 13.4699 44.0273 13.3554 43.6966 13.5473L42.8726 14.0229C42.5406 14.2147 42.4267 14.6388 42.6186 14.9709C42.8122 15.305 43.2377 15.4149 43.5666 15.225Z" fill="#E6007E"/>
<path d="M39.2276 11.5806C39.556 11.7703 39.9817 11.6613 40.1756 11.3266L40.6513 10.5026C40.843 10.1706 40.7292 9.74637 40.3972 9.5546C40.0658 9.36344 39.641 9.47672 39.4492 9.80865L38.9736 10.6326C38.7817 10.9645 38.8955 11.3888 39.2276 11.5806Z" fill="#E6007E"/>
</svg>
