<svg width="60" height="60" viewBox="0 0 60 60" fill="none" xmlns="http://www.w3.org/2000/svg">
<path d="M39.7294 38.5544C40.2992 38.1631 40.699 37.5112 40.7157 36.7183L47.3356 33.2664C47.8978 33.8955 48.7439 34.0339 49.4438 33.7206L53.1287 32.0684C54.0537 31.6536 54.4654 30.5694 54.0508 29.6471L47.9695 16.0822C47.9695 16.0822 47.9695 16.0822 47.9695 16.0819C47.5569 15.161 46.4706 14.7473 45.5485 15.1601L41.8631 16.8124C41.0063 17.1966 40.5507 18.1819 40.9048 19.1242L39.245 19.6265C36.97 20.313 35.531 18.8201 34.3116 18.3154C32.2186 17.1848 29.6619 17.6482 28.0981 19.4428L27.6292 19.9808C26.7223 19.8143 23.9724 19.4518 21.7935 20.6615C21.3104 20.9295 20.8683 21.076 20.4468 21.1083C19.3345 21.1835 18.4827 20.8838 17.6747 20.563L18.2708 19.2335C18.6851 18.3096 18.2732 17.2267 17.3492 16.8123L13.6638 15.16C12.7407 14.7472 11.6564 15.1609 11.2429 16.0819V16.0821L5.16117 29.6471C4.74686 30.571 5.15871 31.654 6.08277 32.0684L9.76827 33.7206C10.3727 33.991 11.0631 33.9158 11.6032 33.5183L14.1441 34.7534C13.4706 35.6657 13.6331 36.9133 14.5025 37.6213C14.8728 37.9232 15.3161 38.0727 15.7603 38.0865C15.6986 38.3242 15.6723 38.5726 15.6964 38.8261C15.7524 39.374 16.0313 39.8893 16.4608 40.2398C17.0833 40.7468 17.9448 40.8708 18.7136 40.4907C18.8215 40.9326 19.0653 41.3382 19.4213 41.6284C20.0449 42.1367 20.9279 42.2681 21.7253 41.8474C21.8365 42.2795 22.0786 42.6755 22.428 42.9606C23.3249 43.691 24.6437 43.5636 25.3811 42.6587L26.1653 41.6958L27.2072 43.2066C27.9233 44.2534 29.346 44.5182 30.391 43.7996C30.8207 43.5039 31.1209 43.076 31.274 42.5819C32.0448 43.1118 33.0777 43.1292 33.8708 42.5836C34.3044 42.2855 34.614 41.8374 34.7625 41.3345C35.5383 41.8353 36.5364 41.8286 37.3044 41.3013C38.0393 40.795 38.4452 39.88 38.2473 38.9421C38.8248 38.9894 39.305 38.8465 39.7294 38.5544ZM42.2826 17.748L45.9681 16.0957C46.3684 15.9153 46.8504 16.0919 47.0344 16.502V16.5017L53.1157 30.0666C53.2987 30.4754 53.1147 30.951 52.7091 31.1326L49.0242 32.7848C48.6158 32.9676 48.1396 32.7843 47.9579 32.3787C45.7438 27.4399 44.0929 23.7573 41.8766 18.8138C41.6927 18.4037 41.8786 17.9289 42.2826 17.748ZM28.8708 20.1161C30.1179 18.6853 32.1553 18.3159 33.8243 19.2175C34.9364 19.6631 36.771 21.4469 39.5417 20.6077L41.3167 20.0706C41.8807 21.3287 39.2742 15.5138 46.8311 32.3731L40.5219 35.6631L33.6751 25.6691C33.0762 24.7968 31.8847 24.6192 31.059 25.2456L28.3142 27.3282C27.057 28.2822 25.29 28.6097 23.6976 28.0428C23.4215 27.8916 22.9839 27.9338 22.8561 27.4456C22.8015 27.2371 22.8511 27.0243 22.9927 26.8619L28.8708 20.1161ZM11.2535 32.3782C11.0795 32.7672 10.6021 32.971 10.1877 32.7849L6.50229 31.1327C6.09833 30.9518 5.91255 30.477 6.09626 30.0667L12.1776 16.5018C12.3598 16.0955 12.8383 15.9136 13.2439 16.0957L16.9293 17.748C17.3332 17.9289 17.519 18.4037 17.3353 18.814C15.8493 22.1284 11.2933 32.2894 11.2535 32.3782ZM15.1497 36.8266C14.6822 36.4452 14.6245 35.7711 14.9955 35.3157C18.252 31.3181 14.4003 36.0464 17.5696 32.1556C17.9407 31.6996 18.6274 31.6329 19.08 32.0012C19.5531 32.3857 19.601 33.0608 19.2346 33.5115L16.6601 36.6718C16.2866 37.1309 15.6083 37.1998 15.1497 36.8266ZM18.6189 39.2905C18.2517 39.7412 17.5827 39.8298 17.1085 39.445C16.637 39.0606 16.5856 38.3868 16.9544 37.9341C17.0393 37.8299 20.0743 34.1045 20.027 34.1625C20.028 34.1613 20.0296 34.1608 20.0306 34.1596C20.0306 34.1591 20.0311 34.1588 20.0316 34.1586C20.4123 33.6898 21.0887 33.6386 21.5394 34.0074C22.0129 34.3907 22.0583 35.0685 21.6956 35.5122C21.6956 35.5125 21.6956 35.5125 21.6952 35.5125V35.5128C21.6943 35.5139 21.6942 35.5153 21.6933 35.5165C21.6494 35.5703 18.5617 39.3609 18.6189 39.2905ZM21.5795 40.6789C21.2056 41.1383 20.5283 41.2073 20.0692 40.8334C19.5974 40.4499 19.5471 39.7761 19.9137 39.3242L22.4891 36.1628V36.163C22.5404 36.1354 23.1578 35.4076 23.9462 35.9722C24.4572 36.3398 24.537 37.0437 24.1516 37.5209C24.1515 37.5211 24.1514 37.5213 24.1513 37.5215C24.1095 37.5729 21.4263 40.867 21.5795 40.6789ZM26.6111 39.5218C26.5679 39.5749 24.458 42.1689 24.5861 42.0113C24.2197 42.461 23.5505 42.5519 23.0758 42.1657C22.6041 41.7813 22.5535 41.1079 22.9203 40.6563L24.9482 38.1668C25.2941 37.7462 25.9698 37.6138 26.4589 38.0118C26.9559 38.4169 26.9536 39.1033 26.6111 39.5218ZM37.3896 37.384L34.8009 33.6202C34.6403 33.3874 34.3218 33.3278 34.0881 33.4885C33.8549 33.6486 33.7957 33.968 33.9559 34.2014C34.1163 34.4346 36.4246 37.7903 37.0486 38.6975C37.444 39.2725 37.3029 40.0577 36.7232 40.4564C36.149 40.8514 35.3595 40.7059 34.9641 40.1311C34.1853 38.9987 32.747 36.9075 31.8718 35.6349C31.7117 35.4021 31.3922 35.343 31.159 35.5032C30.9257 35.6636 30.8666 35.9828 31.0268 36.216L33.6158 39.9804C33.8061 40.2576 33.8782 40.5951 33.8191 40.9267C33.7586 41.2531 33.5658 41.5492 33.29 41.7386C32.7158 42.1343 31.9258 41.9887 31.5308 41.4133C31.4955 41.3619 28.7683 37.3956 28.9421 37.6485C28.7825 37.4149 28.4625 37.3566 28.2293 37.5163C28.1122 37.5968 28.0393 37.7172 28.0156 37.8469C27.9503 38.199 28.2255 38.3455 28.7911 39.2397L30.1355 41.1972C30.5345 41.768 30.389 42.5559 29.8097 42.9548C29.2324 43.3509 28.4498 43.207 28.0521 42.6259L26.8395 40.8676L27.4078 40.1699C28.0995 39.3207 28.0402 37.9795 27.1069 37.216C27.1044 37.2139 27.1011 37.2137 27.0986 37.2116C26.608 36.8159 25.9938 36.6854 25.4169 36.7871C25.3968 36.1236 25.0548 35.5314 24.5968 35.1801C24.1101 34.8062 23.5036 34.6799 22.9599 34.7741C22.9412 34.1425 22.6395 33.5777 22.187 33.2096C21.7591 32.8612 21.1061 32.6637 20.5015 32.7686C20.4834 32.1691 20.2127 31.6142 19.7498 31.2281C18.8171 30.4442 17.4571 30.6692 16.7745 31.5079L14.7999 33.9319L12.2389 32.6875L17.2545 21.4998C18.1459 21.8552 19.1615 22.2242 20.5202 22.1308C21.0969 22.0868 21.6761 21.8994 22.2908 21.5579C23.8036 20.7184 25.7275 20.7743 26.8258 20.9004L22.2187 26.1888C21.8562 26.6058 21.7241 27.1737 21.8643 27.7076C22.0732 28.5019 22.643 28.7788 23.3545 29.0102C25.2683 29.6891 27.4059 29.3035 28.9338 28.1452L31.6786 26.0626C32.0436 25.7852 32.568 25.868 32.829 26.2486C38.0324 33.8456 26.0154 16.3007 39.474 35.9503C39.8681 36.5234 39.7306 37.3093 39.1487 37.7096C38.5626 38.1119 37.7828 37.9558 37.3896 37.384Z" fill="#E6007E"/>
<path d="M49.8038 30.866L51.0498 30.3229C51.3097 30.2097 51.4283 29.9076 51.3152 29.6483C51.202 29.389 50.9007 29.2694 50.6403 29.3833L49.3944 29.9264C49.1345 30.0396 49.0159 30.3417 49.129 30.601C49.2422 30.8604 49.5454 30.9797 49.8038 30.866Z" fill="#E6007E"/>
<path d="M9.93169 29.9265L8.68621 29.3833C8.42744 29.2704 8.12454 29.3893 8.01136 29.6481C7.89818 29.9076 8.01688 30.2097 8.27673 30.3229L9.52221 30.8661C9.78413 30.9802 10.0848 30.8584 10.1971 30.6013C10.3102 30.3416 10.1915 30.0395 9.93169 29.9265Z" fill="#E6007E"/>
</svg>
