<svg width="22" height="23" viewBox="0 0 22 23" fill="none" xmlns="http://www.w3.org/2000/svg">
<g clip-path="url(#clip0_629_40)">
<path d="M9.3717 19.4817L9.11092 16.4427C9.08239 16.1129 9.01476 15.8115 8.90974 15.5466C8.36305 14.1709 7.20539 13.4492 6.56391 13.1416C6.31237 13.0209 6.08214 12.8525 5.87997 12.6412L4.24102 10.9276C3.86414 10.5339 3.32686 10.3467 2.81084 10.4132L2.67609 7.37973C2.63433 6.44189 1.92887 5.66668 1.03516 5.57634C0.468918 5.52212 0 5.98598 0 6.55891V12.0357C0 12.6201 0.157395 13.1881 0.455254 13.6786C1.29645 15.064 2.30927 16.3044 3.46577 17.3656C3.93443 17.7957 4.20325 18.4332 4.20325 19.1144V19.4343C3.66794 19.4347 3.23254 19.8901 3.23254 20.4498V21.9813C3.23254 22.5412 3.66833 22.9968 4.20393 22.9968H9.09382C9.62942 22.9968 10.0652 22.5412 10.0652 21.9813V20.4498C10.0652 19.9915 9.77135 19.6076 9.3717 19.4817ZM3.91918 16.8256C2.81187 15.8095 1.84164 14.6212 1.03555 13.2934C0.807855 12.9183 0.687371 12.4834 0.687371 12.0357V6.55891C0.687371 6.40703 0.806137 6.29033 0.943594 6.29033C1.41621 6.29033 1.96058 6.7603 1.9895 7.41306L2.13366 10.659C2.01218 10.7357 1.90042 10.8281 1.79957 10.9351C1.42708 11.3298 1.43107 11.9722 1.80847 12.367L5.49218 16.2179C5.62641 16.3583 5.84388 16.3583 5.97811 16.2179C6.11235 16.0776 6.11235 15.8502 5.97811 15.7099L2.29453 11.8589C2.18311 11.7424 2.18058 11.5544 2.28899 11.4395C2.38227 11.3405 2.49086 11.2627 2.61452 11.2069C2.61955 11.2048 2.62475 11.2025 2.6296 11.2001C2.99591 11.0383 3.46023 11.1278 3.75504 11.4359L5.39395 13.1493C5.65404 13.4212 5.95121 13.6384 6.27726 13.7947C6.8273 14.0585 7.81816 14.6728 8.27492 15.8223C8.3533 16.0194 8.40413 16.25 8.42626 16.5071L8.67629 19.4203C8.28919 19.4217 10.0785 19.4151 4.89053 19.4343V19.1145C4.89057 18.2264 4.53651 17.3923 3.91918 16.8256ZM9.37789 21.9813C9.37789 22.1451 9.25053 22.2782 9.09382 22.2782H4.20393C4.04723 22.2782 3.91987 22.1451 3.91987 21.9813V20.4498C3.91987 20.286 4.04723 20.1528 4.20393 20.1528H9.09382C9.25053 20.1528 9.37789 20.286 9.37789 20.4498V21.9813Z" fill="#E6007E"/>
<path d="M21.6844 5.82826C21.4877 5.64143 21.2189 5.54934 20.9588 5.57634C20.0651 5.66668 19.3597 6.4419 19.3177 7.37973L19.1831 10.4132C18.6649 10.3479 18.13 10.5341 17.7528 10.9278L16.114 12.641C15.9113 12.8527 15.6814 13.0211 15.4297 13.1416C14.7884 13.4494 13.6309 14.1709 13.0839 15.5466C12.9788 15.8115 12.9111 16.113 12.8829 16.4429L12.6223 19.4816C12.2225 19.6075 11.9285 19.9914 11.9285 20.4498V21.9813C11.9285 22.5412 12.3644 22.9968 12.9 22.9968H17.79C18.3257 22.9968 18.7613 22.5412 18.7613 21.9813V20.4498C18.7613 19.8899 18.3259 19.4345 17.7904 19.4343V19.1144C17.7904 18.4333 18.0592 17.7959 18.528 17.3656C19.6848 16.3045 20.6977 15.0638 21.5387 13.6786C21.8364 13.1881 21.9938 12.6201 21.9938 12.0357V6.55892C21.9938 6.28121 21.881 6.01492 21.6844 5.82826ZM18.0739 20.4498V21.9813C18.0739 22.1451 17.9464 22.2783 17.79 22.2783H12.9C12.7433 22.2783 12.6158 22.1451 12.6158 21.9813V20.4498C12.6158 20.286 12.7433 20.1528 12.9 20.1528H16.1837L17.4451 20.159H17.4467C17.457 20.159 17.4662 20.1538 17.4764 20.1528H17.79C17.9465 20.1528 18.0739 20.286 18.0739 20.4498ZM21.3065 12.0357C21.3065 12.4834 21.186 12.9183 20.9581 13.2936C20.1523 14.621 19.1825 15.8094 18.075 16.8256C17.4571 17.3923 17.1031 18.2264 17.1031 19.1144V19.4342H16.2018L13.3175 19.4202L13.5675 16.5071C13.5897 16.2499 13.6403 16.0196 13.7188 15.8224C14.1756 14.6728 15.1663 14.0584 15.7163 13.7948C16.0422 13.6387 16.3392 13.4215 16.6 13.1492L18.2387 11.436C18.5334 11.1283 18.9912 11.0366 19.3647 11.2002C19.3694 11.2027 19.3744 11.2048 19.3795 11.2069C19.5016 11.2617 19.611 11.34 19.705 11.4396C19.8131 11.5544 19.8107 11.7424 19.6993 11.8589L16.0157 15.7099C15.8815 15.8502 15.8815 16.0775 16.0157 16.2179C16.15 16.3582 16.3674 16.3582 16.5017 16.2179L20.1852 12.3669C20.5628 11.9724 20.5668 11.3301 20.1946 10.9354C20.0936 10.8279 19.9815 10.7353 19.86 10.6588L20.0043 7.4132C20.0305 6.82989 20.4691 6.34765 21.0245 6.29168C21.0977 6.28449 21.1678 6.30852 21.2222 6.36009C21.2765 6.41166 21.3064 6.48219 21.3064 6.55887V12.0357H21.3065Z" fill="#E6007E"/>
<path d="M12.7411 11.1295C12.8504 11.0873 12.9579 11.0394 13.0653 10.9926C13.7802 10.6466 14.2354 11.1656 14.2698 11.1816C14.4064 11.3021 14.6084 11.2935 14.7346 11.1612L15.7004 10.1517C15.8266 10.0197 15.8354 9.80869 15.7202 9.66606C15.7049 9.63012 15.2118 9.15503 15.537 8.40263C15.585 8.29105 15.6293 8.18283 15.6692 8.06949C15.9448 7.30102 16.6155 7.33053 16.6499 7.31674C16.8284 7.30182 16.966 7.14603 16.966 6.95871V5.53249C16.966 5.35073 16.8361 5.19759 16.6636 5.17585C16.6199 5.15847 15.9456 5.18807 15.6686 4.41676C15.6296 4.30922 15.587 4.20186 15.539 4.08115C15.2084 3.33365 15.7049 2.85752 15.7202 2.82159C15.8354 2.67896 15.8266 2.46792 15.7004 2.33598L14.7346 1.32641C14.6084 1.19447 14.4063 1.18535 14.2701 1.3057C14.2357 1.32174 13.7815 1.83919 13.0616 1.49675C12.9542 1.44657 12.8512 1.40044 12.7431 1.35902C12.0155 1.07296 12.0318 0.356723 12.0185 0.320651C11.9984 0.139616 11.8514 0.00314331 11.6772 0.00314331H10.3162C10.1422 0.00314331 9.99552 0.139257 9.97489 0.319977C9.96175 0.355915 9.97773 1.07296 9.25302 1.35799C9.14212 1.40026 9.03873 1.44657 8.92968 1.49765C8.21262 1.8387 7.75728 1.32142 7.72286 1.30538C7.58592 1.18558 7.38474 1.19452 7.25871 1.32645L6.29303 2.33603C6.16683 2.46796 6.15828 2.679 6.27322 2.82163C6.28852 2.85757 6.78318 3.33356 6.45631 4.08452C6.40866 4.19521 6.36505 4.30607 6.32427 4.4182C6.04914 5.18335 5.36418 5.1622 5.32971 5.17585C5.15707 5.19759 5.02734 5.35073 5.02734 5.53249V6.95871C5.02734 7.14608 5.16493 7.30187 5.34364 7.31674C5.37805 7.33053 6.04905 7.30376 6.32341 8.0672C6.36419 8.18297 6.40832 8.29123 6.45666 8.40349C6.78197 9.1571 6.28852 9.63012 6.27327 9.66606C6.15832 9.80869 6.16687 10.0197 6.29307 10.1517L7.25875 11.1612C7.38478 11.2932 7.58682 11.3019 7.72325 11.182C7.75762 11.166 8.21094 10.6466 8.94115 10.9986C9.04368 11.0431 9.14628 11.0887 9.2504 11.1286C9.97666 11.4139 9.96179 12.1317 9.97498 12.1677C9.9956 12.3483 10.1423 12.4845 10.3163 12.4845H11.6773C11.8515 12.4845 11.9985 12.348 12.0186 12.167C12.0318 12.1311 12.0129 11.4153 12.7411 11.1295ZM11.381 11.7659H10.6118C10.4807 11.1721 10.0673 10.6818 9.48969 10.4552C9.41196 10.4251 9.33921 10.3936 9.2165 10.3404C8.65571 10.0692 8.03133 10.1076 7.53397 10.4327L6.98994 9.86412C7.2982 9.34837 7.33696 8.69561 7.08305 8.10808C7.04159 8.01177 7.00352 7.91878 6.9676 7.81685C6.75198 7.21656 6.28465 6.785 5.71463 6.64677V5.84227C6.28164 5.70773 6.7503 5.2758 6.96708 4.67219C7.00266 4.57448 7.04125 4.47696 7.08254 4.38064C7.33777 3.79419 7.29932 3.14197 6.9899 2.62375L7.53375 2.05499C8.02841 2.3783 8.65266 2.419 9.21259 2.15252C9.30488 2.10935 9.39383 2.06937 9.49214 2.03164C10.0694 1.80482 10.4835 1.31203 10.6124 0.721714H11.3816C11.5128 1.31554 11.9262 1.80568 12.5042 2.03267C12.5995 2.06915 12.6884 2.10935 12.7787 2.15162C13.3395 2.41864 13.9637 2.37861 14.4594 2.05477L15.0034 2.62335C14.6929 3.14174 14.6551 3.79432 14.9094 4.36937C14.9493 4.47022 14.9893 4.57129 15.0255 4.67075C15.243 5.27562 15.7115 5.70768 16.2787 5.84227V6.64623C15.7105 6.78325 15.2417 7.21548 15.0249 7.81914C14.9896 7.91896 14.9514 8.01213 14.9105 8.10754C14.6564 8.6949 14.695 9.34676 15.0037 9.86394L14.4597 10.4325C13.964 10.108 13.3395 10.0683 12.7901 10.3345C12.677 10.3836 12.5871 10.423 12.5015 10.456C11.9243 10.6827 11.5102 11.1751 11.381 11.7659Z" fill="#E6007E"/>
<path d="M13.8975 6.24382C13.8975 4.57183 12.5963 3.21155 10.9969 3.21155C9.39757 3.21155 8.09644 4.57183 8.09644 6.24382C8.09644 7.91581 9.39757 9.27609 10.9969 9.27609C12.5963 9.27609 13.8975 7.91581 13.8975 6.24382ZM10.9969 8.55757C9.77664 8.55757 8.78376 7.51956 8.78376 6.24386C8.78376 4.96817 9.77664 3.93012 10.9969 3.93012C12.2171 3.93012 13.2101 4.96813 13.2101 6.24382C13.2101 7.51951 12.2171 8.55757 10.9969 8.55757Z" fill="#E6007E"/>
<path d="M11.7539 5.23867L10.5593 6.48773L10.2397 6.15355C10.1055 6.01322 9.88799 6.01322 9.75375 6.15355C9.61952 6.29389 9.61952 6.52124 9.75375 6.66158L10.3164 7.24978C10.4504 7.38985 10.6679 7.39034 10.8023 7.24978L12.2399 5.7467C12.3741 5.60636 12.3741 5.37901 12.2399 5.23867C12.1056 5.09834 11.8881 5.09834 11.7539 5.23867Z" fill="#E6007E"/>
</g>
<defs>
<clipPath id="clip0_629_40">
<rect width="22" height="23" fill="white"/>
</clipPath>
</defs>
</svg>
